<svg width="27" height="26" viewBox="0 0 27 26" fill="none" xmlns="http://www.w3.org/2000/svg">
<path d="M15.6351 0.551914C15.2779 0.198523 14.7934 0 14.2883 0C13.7832 0 13.2987 0.198523 12.9415 0.551914L0.279328 13.0799C0.190771 13.1675 0.120518 13.2715 0.0725909 13.386C0.0246643 13.5005 0 13.6232 0 13.7472C0 13.8711 0.0246643 13.9938 0.0725909 14.1083C0.120518 14.2228 0.190771 14.3268 0.279328 14.4145C0.458177 14.5915 0.700745 14.6909 0.953675 14.6909C1.07891 14.6909 1.20292 14.6665 1.31863 14.619C1.43433 14.5716 1.53947 14.5021 1.62803 14.4145L2.85862 13.1948V23.1724C2.85862 23.9224 3.15967 24.6416 3.69554 25.1718C4.23141 25.7021 4.9582 26 5.71604 26H22.8605C23.6184 26 24.3452 25.7021 24.881 25.1718C25.4169 24.6416 25.718 23.9224 25.718 23.1724V13.1948L23.813 13.2154L2.85862 13.1948L25.372 13.2169C25.5508 13.3939 25.7934 13.4933 26.0463 13.4933C26.2993 13.4933 26.5418 13.3939 26.7207 13.2169C26.8995 13.0399 27 12.7999 27 12.5496C27 12.2993 26.8995 12.0593 26.7207 11.8823L23.813 8.64435V2.43695C23.813 2.18698 23.7127 1.94725 23.534 1.77049C23.3554 1.59373 23.1132 1.49443 22.8605 1.49443H20.9556C20.703 1.49443 20.4607 1.59373 20.2821 1.77049C20.1035 1.94725 20.0031 2.18698 20.0031 2.43695V4.87428L15.6351 0.551914ZM23.813 11.3098V23.1724C23.813 23.4224 23.7127 23.6621 23.534 23.8389C23.3554 24.0157 23.1132 24.115 22.8605 24.115H5.71604C5.46343 24.115 5.22116 24.0157 5.04254 23.8389C4.86391 23.6621 4.76356 23.4224 4.76356 23.1724V11.3098H14.2883H23.813Z" fill="#E8EBF0"/>
</svg>
